<?xml version="1.0" encoding="utf-8"?>
<!-- Generator: Adobe Illustrator 23.0.0, SVG Export Plug-In . SVG Version: 6.00 Build 0)  -->
<svg version="1.1" id="Calque_1" xmlns="http://www.w3.org/2000/svg" xmlns:xlink="http://www.w3.org/1999/xlink" x="0px" y="0px"
	 viewBox="0 0 225.7 234.3" style="enable-background:new 0 0 225.7 234.3;" xml:space="preserve">
<style type="text/css">
	.st0{enable-background:new    ;}
	.st1{clip-path:url(#SVGID_2_);}
	.st2{fill:#FFFFFF;}
	.st3{clip-path:url(#SVGID_4_);}
	.st4{clip-path:url(#SVGID_6_);}
	.st5{clip-path:url(#SVGID_8_);}
	.st6{clip-path:url(#SVGID_10_);}
	.st7{clip-path:url(#SVGID_12_);}
	.st8{clip-path:url(#SVGID_14_);}
	.st9{clip-path:url(#SVGID_16_);}
	.st10{clip-path:url(#SVGID_18_);}
	.st11{clip-path:url(#SVGID_20_);}
	.st12{clip-path:url(#SVGID_22_);}
	.st13{clip-path:url(#SVGID_24_);}
	.st14{fill:none;}
</style>
<g id="reuni">
	<g>
		<g id="couche6L">
			<g class="st0">
				<g>
					<defs>
						<polygon id="SVGID_1_" points="10.8,151.4 10.5,55.9 122.4,-8.7 122.7,86.8 						"/>
					</defs>
					<clipPath id="SVGID_2_">
						<use xlink:href="#SVGID_1_"  style="overflow:visible;"/>
					</clipPath>
					<g class="st1">
						<g>
							<g>
								<g>
									<polyline points="25.9,50.3 12.2,58.2 12.5,147.2 55.6,122.3 55.6,110.4 26.1,127.5 25.9,50.3 									"/>
									<path class="st2" d="M12.5,147.2l-0.3-89l13.7-7.9l0.2,77.2l29.5-17v11.8L12.5,147.2 M27.5,47.4l-17,9.8l0.3,92.9
										l46.5-26.9v-15.7l-29.5,17L27.5,47.4"/>
									<path d="M92.9,90.2c-4.7,2.7-8.3,3-10.8,0.8c-2.4-2.2-3.6-6.8-3.6-13.7l-0.1-25.5c0-6.9,1.2-12.8,3.5-17.7
										c2.4-5,6-8.9,10.7-11.6s8.3-3,10.8-0.8c2.5,2.1,3.7,6.6,3.7,13.5l0.1,25.5c0,6.9-1.2,12.9-3.6,17.9
										C101.3,83.5,97.6,87.4,92.9,90.2 M92.6,10.4c-8.5,4.9-15.3,11.8-20.3,20.5c-5,8.7-7.5,18.4-7.5,28.8l0.1,25.4
										c0,10.4,2.6,17.1,7.6,20c5.1,2.9,11.9,1.9,20.4-3s15.3-11.8,20.4-20.5s7.6-18.4,7.6-28.8l-0.1-25.4c0-10.3-2.6-17.1-7.7-20
										C108,4.5,101.1,5.5,92.6,10.4"/>
									<path class="st2" d="M92.9,88.2c-4.2,2.4-7.3,2.7-9.4,0.8c-2.1-1.9-3.2-6.2-3.3-12.7l-0.1-25.5c0-6.4,1-11.9,3.2-16.3
										c2.1-4.3,5.2-7.6,9.4-10.1c4.2-2.4,7.3-2.7,9.5-0.8c2.2,1.9,3.3,6.1,3.4,12.5l0.1,25.5c0,6.5-1.1,12-3.2,16.5
										C100.2,82.5,97.1,85.8,92.9,88.2 M92.7,22.4C88,25.1,84.4,29,82,34c-2.3,4.9-3.5,10.8-3.5,17.7l0.1,25.5
										c0,6.9,1.2,11.5,3.6,13.7s6,2,10.8-0.8c4.7-2.7,8.3-6.6,10.8-11.7c2.4-4.9,3.6-10.9,3.6-17.9L107.3,35
										c0-6.8-1.3-11.3-3.7-13.5C101,19.5,97.3,19.7,92.7,22.4 M93,102c-8.5,4.9-15.3,5.9-20.4,3c-5-2.9-7.6-9.6-7.6-20l-0.1-25.4
										c0-10.3,2.5-20,7.5-28.8c5-8.7,11.8-15.6,20.3-20.5s15.3-5.9,20.4-3s7.7,9.6,7.7,20l0.1,25.4c0,10.4-2.5,20.1-7.6,28.8
										C108.3,90.3,101.4,97.1,93,102 M92.6,8.5C83.7,13.6,76.5,21,71.2,30.3s-8,19.5-8,30.4L63.3,86c0,10.9,2.8,18,8.1,21.1
										c5.4,3.1,12.6,2,21.5-3.2c8.9-5.1,16.2-12.5,21.5-21.7c5.4-9.3,8.1-19.5,8.1-30.4l-0.1-25.4c0-10.9-2.8-18-8.2-21.1
										C108.8,2.3,101.6,3.3,92.6,8.5"/>
								</g>
							</g>
						</g>
					</g>
				</g>
			</g>
		</g>
		<g id="couche5L">
			<g class="st0">
				<g>
					<defs>
						<polygon id="SVGID_3_" points="13.9,153 13.7,57.5 125.5,-7.1 125.8,88.4 						"/>
					</defs>
					<clipPath id="SVGID_4_">
						<use xlink:href="#SVGID_3_"  style="overflow:visible;"/>
					</clipPath>
					<g class="st3">
						<g>
							<g>
								<g>
									<polyline points="29,51.8 15.3,59.7 15.6,148.8 58.8,123.8 58.7,112 29.2,129.1 29,51.8 									"/>
									<path class="st2" d="M15.6,148.8l-0.3-89l13.7-8l0.2,77.2l29.5-17v11.8L15.6,148.8 M30.7,49l-17,9.8l0.3,92.9l46.5-26.9
										v-15.7l-29.5,17L30.7,49"/>
									<path d="M96.1,91.7c-4.7,2.7-8.3,3-10.8,0.8c-2.4-2.2-3.6-6.8-3.6-13.7l-0.1-25.5c0-6.9,1.2-12.8,3.5-17.7
										c2.4-5,6-8.9,10.7-11.6s8.3-3,10.8-0.8c2.5,2.1,3.7,6.6,3.7,13.5l0.1,25.5c0,6.9-1.2,12.9-3.6,17.9
										C104.4,85.1,100.8,89,96.1,91.7 M95.8,12c-8.5,4.9-15.3,11.8-20.3,20.5S68,50.9,68,61.3l0.1,25.4c0,10.4,2.6,17.1,7.6,20
										c5.1,2.9,11.9,1.9,20.4-3s15.3-11.8,20.4-20.5s7.6-18.4,7.6-28.8L124,29c0-10.3-2.6-17.1-7.7-20
										C111.1,6.1,104.2,7.1,95.8,12"/>
									<path class="st2" d="M96.1,89.8c-4.2,2.4-7.3,2.7-9.4,0.8c-2.1-1.9-3.2-6.2-3.3-12.7l-0.1-25.5c0-6.4,1-11.9,3.2-16.3
										c2.1-4.3,5.2-7.6,9.4-10.1c4.2-2.4,7.3-2.7,9.5-0.8c2.2,1.9,3.3,6.1,3.4,12.5l0.1,25.5c0,6.5-1.1,12-3.2,16.5
										C103.4,84,100.3,87.4,96.1,89.8 M95.8,24c-4.7,2.7-8.3,6.6-10.7,11.6c-2.3,4.9-3.5,10.8-3.5,17.7l0.1,25.5
										c0,6.9,1.2,11.5,3.6,13.7s6,2,10.8-0.8c4.7-2.7,8.3-6.6,10.8-11.7c2.4-4.9,3.6-10.9,3.6-17.9l-0.1-25.5
										c0-6.8-1.3-11.3-3.7-13.5C104.1,21,100.5,21.3,95.8,24 M96.1,103.6c-8.5,4.9-15.3,5.9-20.4,3c-5-2.9-7.6-9.6-7.6-20
										L68,61.3c0-10.3,2.5-20,7.5-28.8c5-8.7,11.8-15.6,20.3-20.5s15.3-5.9,20.4-3s7.7,9.6,7.7,20l0.1,25.4
										c0,10.4-2.5,20.1-7.6,28.8C111.4,91.8,104.6,98.7,96.1,103.6 M95.8,10.1c-8.9,5.2-16.1,12.5-21.5,21.8
										c-5.3,9.3-8,19.5-8,30.4l0.1,25.4c0,10.9,2.8,18,8.1,21.1c5.4,3.1,12.6,2,21.5-3.2c8.9-5.1,16.2-12.5,21.5-21.7
										c5.4-9.3,8.1-19.5,8.1-30.4V28c0-10.9-2.8-18-8.2-21.1C112,3.9,104.7,4.9,95.8,10.1"/>
								</g>
							</g>
						</g>
					</g>
				</g>
			</g>
		</g>
		<g id="couche4L">
			<g class="st0">
				<g>
					<defs>
						<polygon id="SVGID_5_" points="17.1,154.5 16.8,59 128.7,-5.5 128.9,89.9 						"/>
					</defs>
					<clipPath id="SVGID_6_">
						<use xlink:href="#SVGID_5_"  style="overflow:visible;"/>
					</clipPath>
					<g class="st4">
						<g>
							<g>
								<g>
									<polyline points="32.1,53.4 18.5,61.3 18.7,150.3 61.9,125.4 61.9,113.6 32.4,130.6 32.1,53.4 									"/>
									<path class="st2" d="M18.7,150.3l-0.3-89l13.7-7.9l0.2,77.2l29.5-17v11.8L18.7,150.3 M33.8,50.5l-17,9.8l0.3,92.9
										l46.5-26.9v-15.7l-29.5,17L33.8,50.5"/>
									<path d="M99.2,93.3c-4.7,2.7-8.3,3-10.8,0.8c-2.4-2.2-3.6-6.8-3.6-13.7l-0.1-25.5c0-6.9,1.2-12.8,3.5-17.7
										c2.4-5,6-8.9,10.7-11.6s8.3-3,10.8-0.8c2.5,2.1,3.7,6.6,3.7,13.5l0.1,25.5c0,6.9-1.2,12.9-3.6,17.9
										C107.5,86.7,103.9,90.6,99.2,93.3 M98.9,13.6c-8.5,4.9-15.3,11.8-20.3,20.5c-5,8.7-7.5,18.4-7.5,28.8l0.1,25.4
										c0,10.4,2.6,17.1,7.6,20c5.1,2.9,11.9,1.9,20.4-3s15.3-11.8,20.4-20.5s7.6-18.4,7.6-28.8l-0.1-25.4c0-10.3-2.6-17.1-7.7-20
										C114.3,7.7,107.4,8.7,98.9,13.6"/>
									<path class="st2" d="M99.2,91.4c-4.2,2.4-7.3,2.7-9.4,0.8c-2.1-1.9-3.2-6.2-3.3-12.7L86.4,54c0-6.4,1-11.9,3.2-16.3
										c2.1-4.3,5.2-7.6,9.4-10.1c4.2-2.4,7.3-2.7,9.5-0.8c2.2,1.9,3.3,6.1,3.4,12.5l0.1,25.5c0,6.5-1.1,12-3.2,16.5
										C106.5,85.6,103.4,88.9,99.2,91.4 M99,25.6c-4.7,2.7-8.3,6.6-10.7,11.6C85.9,42,84.7,48,84.8,54.8l0.1,25.5
										c0,6.9,1.2,11.5,3.6,13.7s6,2,10.8-0.8c4.7-2.7,8.3-6.6,10.8-11.7c2.4-4.9,3.6-10.9,3.6-17.9l-0.1-25.5
										c0-6.8-1.3-11.3-3.7-13.5C107.3,22.6,103.6,22.9,99,25.6 M99.2,105.2c-8.5,4.9-15.3,5.9-20.4,3c-5-2.9-7.6-9.6-7.6-20
										l-0.1-25.4c0-10.3,2.5-20,7.5-28.8c5-8.7,11.8-15.6,20.3-20.5s15.3-5.9,20.4-3s7.7,9.6,7.7,20l0.1,25.4
										c0,10.4-2.5,20.1-7.6,28.8C114.5,93.4,107.7,100.3,99.2,105.2 M98.9,11.6C90,16.8,82.8,24.1,77.4,33.4
										c-5.3,9.3-8,19.5-8,30.4l0.1,25.4c0,10.9,2.8,18,8.1,21.1c5.4,3.1,12.6,2,21.5-3.2c8.9-5.1,16.2-12.5,21.5-21.7
										c5.4-9.3,8.1-19.5,8.1-30.4l-0.1-25.4c0-10.9-2.8-18-8.2-21.1C115.1,5.4,107.8,6.5,98.9,11.6"/>
								</g>
							</g>
						</g>
					</g>
				</g>
			</g>
		</g>
		<g id="couche3L">
			<g class="st0">
				<g>
					<defs>
						<polygon id="SVGID_7_" points="20.2,156.1 19.9,60.6 131.8,-4 132.1,91.5 						"/>
					</defs>
					<clipPath id="SVGID_8_">
						<use xlink:href="#SVGID_7_"  style="overflow:visible;"/>
					</clipPath>
					<g class="st5">
						<g>
							<g>
								<g>
									<polyline points="35.3,55 21.6,62.9 21.9,151.9 65.1,127 65,115.1 35.5,132.2 35.3,55 									"/>
									<path class="st2" d="M21.9,151.9l-0.3-89L35.3,55l0.2,77.2l29.5-17V127L21.9,151.9 M36.9,52.1l-17,9.8l0.3,92.9l46.5-26.9
										v-15.7l-29.5,17L36.9,52.1"/>
									<path d="M102.3,94.9c-4.7,2.7-8.3,3-10.8,0.8c-2.4-2.2-3.6-6.8-3.6-13.7l-0.1-25.5c0-6.9,1.2-12.8,3.5-17.7
										c2.4-5,6-8.9,10.7-11.6s8.3-3,10.8-0.8c2.5,2.1,3.7,6.6,3.7,13.5l0.1,25.5c0,6.9-1.2,12.9-3.6,17.9
										C110.7,88.2,107,92.1,102.3,94.9 M102.1,15.1C93.6,20,86.8,26.9,81.8,35.7c-5,8.7-7.5,18.4-7.5,28.8l0.1,25.4
										c0,10.4,2.6,17.1,7.6,20c5.1,2.9,11.9,1.9,20.4-3s15.3-11.8,20.4-20.5s7.6-18.4,7.6-28.8l-0.1-25.4c0-10.3-2.6-17.1-7.7-20
										C117.4,9.2,110.5,10.2,102.1,15.1"/>
									<path class="st2" d="M102.3,92.9c-4.2,2.4-7.3,2.7-9.4,0.8c-2.1-1.9-3.2-6.2-3.3-12.7l-0.1-25.5c0-6.4,1-11.9,3.2-16.3
										c2.1-4.3,5.2-7.6,9.4-10.1c4.2-2.4,7.3-2.7,9.5-0.8c2.2,1.9,3.3,6.1,3.4,12.5l0.1,25.5c0,6.5-1.1,12-3.2,16.5
										C109.7,87.2,106.6,90.5,102.3,92.9 M102.1,27.1c-4.7,2.7-8.3,6.6-10.7,11.6c-2.3,4.9-3.5,10.8-3.5,17.7L88,81.9
										c0,6.9,1.2,11.5,3.6,13.7s6,2,10.8-0.8c4.7-2.7,8.3-6.6,10.8-11.7c2.4-4.9,3.6-10.9,3.6-17.9l-0.1-25.5
										c0-6.8-1.3-11.3-3.7-13.5C110.4,24.2,106.8,24.4,102.1,27.1 M102.4,106.7c-8.5,4.9-15.3,5.9-20.4,3c-5-2.9-7.6-9.6-7.6-20
										l-0.1-25.4c0-10.3,2.5-20,7.5-28.8c5-8.7,11.8-15.6,20.3-20.5s15.3-5.9,20.4-3s7.7,9.6,7.7,20l0.1,25.4
										c0,10.4-2.5,20.1-7.6,28.8C117.7,95,110.8,101.9,102.4,106.7 M102,13.2C93.1,18.4,85.9,25.7,80.6,35s-8,19.5-8,30.4
										l0.1,25.4c0,10.9,2.8,18,8.1,21.1c5.4,3.1,12.6,2,21.5-3.2c8.9-5.1,16.2-12.5,21.5-21.7c5.4-9.3,8.1-19.5,8.1-30.4
										l-0.1-25.4c0-10.9-2.8-18-8.2-21.1C118.3,7,111,8,102,13.2"/>
								</g>
							</g>
						</g>
					</g>
				</g>
			</g>
		</g>
		<g id="couche2L">
			<g class="st0">
				<g>
					<defs>
						<polygon id="SVGID_9_" points="23.4,157.7 23.1,62.2 134.9,-2.4 135.2,93.1 						"/>
					</defs>
					<clipPath id="SVGID_10_">
						<use xlink:href="#SVGID_9_"  style="overflow:visible;"/>
					</clipPath>
					<g class="st6">
						<g>
							<g>
								<g>
									<polyline points="38.4,56.6 24.8,64.4 25,153.5 68.2,128.5 68.2,116.7 38.6,133.8 38.4,56.6 									"/>
									<path class="st2" d="M25,153.5l-0.3-89l13.7-7.9l0.2,77.2l29.5-17v11.8L25,153.5 M40.1,53.7l-17,9.8l0.3,92.9l46.5-26.9
										v-15.7l-29.5,17L40.1,53.7"/>
									<path d="M105.5,96.4c-4.7,2.7-8.3,3-10.8,0.8c-2.4-2.2-3.6-6.8-3.6-13.7L91,57.9c0-6.9,1.2-12.8,3.5-17.7
										c2.4-5,6-8.9,10.7-11.6s8.3-3,10.8-0.8c2.5,2.1,3.7,6.6,3.7,13.5l0.1,25.5c0,6.9-1.2,12.9-3.6,17.9
										C113.8,89.8,110.2,93.7,105.5,96.4 M105.2,16.7c-8.5,4.9-15.3,11.8-20.3,20.5S77.4,55.6,77.4,66l0.1,25.4
										c0,10.4,2.6,17.1,7.6,20c5.1,2.9,11.9,1.9,20.4-3s15.3-11.8,20.4-20.5c5.1-8.7,7.6-18.4,7.6-28.8l-0.1-25.4
										c0-10.3-2.6-17.1-7.7-20C120.5,10.8,113.7,11.8,105.2,16.7"/>
									<path class="st2" d="M105.5,94.5c-4.2,2.4-7.3,2.7-9.4,0.8c-2.1-1.9-3.2-6.2-3.3-12.7L92.7,57c0-6.4,1-11.9,3.2-16.3
										c2.1-4.3,5.2-7.6,9.4-10.1c4.2-2.4,7.3-2.7,9.5-0.8c2.2,1.9,3.3,6.1,3.4,12.5l0.1,25.5c0,6.5-1.1,12-3.2,16.5
										C112.8,88.7,109.7,92.1,105.5,94.5 M105.2,28.7c-4.7,2.7-8.3,6.6-10.7,11.6C92.2,45.2,91,51.1,91,57.9l0.1,25.5
										c0,6.9,1.2,11.5,3.6,13.7s6,2,10.8-0.8c4.7-2.7,8.3-6.6,10.8-11.7c2.4-4.9,3.6-10.9,3.6-17.9l-0.1-25.5
										c0-6.8-1.3-11.3-3.7-13.5C113.5,25.7,109.9,26,105.2,28.7 M105.5,108.3c-8.5,4.9-15.3,5.9-20.4,3c-5-2.9-7.6-9.6-7.6-20
										L77.4,66c0-10.3,2.5-20,7.5-28.8c5-8.7,11.8-15.6,20.3-20.5s15.3-5.9,20.4-3s7.7,9.6,7.7,20l0.1,25.4
										c0,10.4-2.5,20.1-7.6,28.8C120.8,96.5,114,103.4,105.5,108.3 M105.2,14.8C96.3,19.9,89,27.3,83.7,36.6s-8,19.5-8,30.4
										l0.1,25.4c0,10.9,2.8,18,8.1,21.1c5.4,3.1,12.6,2,21.5-3.2c8.9-5.1,16.2-12.5,21.5-21.7c5.4-9.3,8.1-19.5,8.1-30.4V32.7
										c0-10.9-2.8-18-8.2-21.1C121.4,8.6,114.1,9.6,105.2,14.8"/>
								</g>
							</g>
						</g>
					</g>
				</g>
			</g>
		</g>
		<g id="couche1L">
			<g class="st0">
				<g>
					<defs>
						<polygon id="SVGID_11_" points="26.5,159.2 26.2,63.7 138.1,-0.8 138.4,94.7 						"/>
					</defs>
					<clipPath id="SVGID_12_">
						<use xlink:href="#SVGID_11_"  style="overflow:visible;"/>
					</clipPath>
					<g class="st7">
						<g>
							<g>
								<g>
									<polyline points="41.6,58.1 27.9,66 28.2,155 71.3,130.1 71.3,118.3 41.8,135.3 41.6,58.1 									"/>
									<path class="st2" d="M28.2,155l-0.3-89l13.7-7.9l0.2,77.2l29.5-17v11.8L28.2,155 M43.2,55.2l-17,9.8l0.3,92.9L73,131.1
										v-15.7l-29.5,17L43.2,55.2"/>
									<path d="M108.6,98c-4.7,2.7-8.3,3-10.8,0.8c-2.4-2.2-3.6-6.8-3.6-13.7l-0.1-25.5c0-6.9,1.2-12.8,3.5-17.7
										c2.4-5,6-8.9,10.7-11.6s8.3-3,10.8-0.8c2.5,2.1,3.7,6.6,3.7,13.5l0.1,25.5c0,6.9-1.2,12.9-3.6,17.9
										C116.9,91.4,113.3,95.3,108.6,98 M108.3,18.3C99.9,23.1,93,30.1,88.1,38.8c-5,8.7-7.5,18.4-7.5,28.8L80.7,93
										c0,10.4,2.6,17.1,7.6,20c5.1,2.9,11.9,1.9,20.4-3s15.3-11.8,20.4-20.5c5.1-8.7,7.6-18.4,7.6-28.8l-0.1-25.4
										c0-10.3-2.6-17.1-7.7-20C123.7,12.4,116.8,13.4,108.3,18.3"/>
									<path class="st2" d="M108.6,96.1c-4.2,2.4-7.3,2.7-9.4,0.8c-2.1-1.9-3.2-6.2-3.3-12.7l-0.1-25.5c0-6.4,1-11.9,3.2-16.3
										c2.1-4.3,5.2-7.6,9.4-10.1c4.2-2.4,7.3-2.7,9.5-0.8s3.3,6.1,3.4,12.5l0.1,25.5c0,6.5-1.1,12-3.2,16.5
										C115.9,90.3,112.8,93.6,108.6,96.1 M108.4,30.3c-4.7,2.7-8.3,6.6-10.7,11.6c-2.3,4.9-3.5,10.8-3.5,17.7l0.1,25.5
										c0,6.9,1.2,11.5,3.6,13.7s6,2,10.8-0.8c4.7-2.7,8.3-6.6,10.8-11.7c2.4-4.9,3.6-10.9,3.6-17.9L123,42.9
										c0-6.8-1.3-11.3-3.7-13.5C116.7,27.3,113,27.6,108.4,30.3 M108.6,109.9c-8.5,4.9-15.3,5.9-20.4,3c-5-2.9-7.6-9.6-7.6-20
										l-0.1-25.4c0-10.3,2.5-20,7.5-28.8c5-8.7,11.8-15.6,20.3-20.5s15.3-5.9,20.4-3c5.1,2.9,7.7,9.6,7.7,20l0.1,25.4
										c0,10.4-2.5,20.1-7.6,28.8C124,98.1,117.1,105,108.6,109.9 M108.3,16.3c-8.9,5.2-16.1,12.5-21.5,21.8
										c-5.3,9.3-8,19.5-8,30.4L79,93.9c0,10.9,2.8,18,8.1,21.1c5.4,3.1,12.6,2,21.5-3.2c8.9-5.1,16.2-12.5,21.5-21.7
										c5.4-9.3,8.1-19.5,8.1-30.4l-0.1-25.4c0-10.9-2.8-18-8.2-21.1C124.5,10.1,117.3,11.2,108.3,16.3"/>
								</g>
							</g>
						</g>
					</g>
				</g>
			</g>
		</g>
	</g>
	<g>
		<g id="couche6U">
			<g class="st0">
				<g>
					<defs>
						<polygon id="SVGID_13_" points="33.1,179.2 153.3,109.4 235.5,156.9 115.4,226.7 						"/>
					</defs>
					<clipPath id="SVGID_14_">
						<use xlink:href="#SVGID_13_"  style="overflow:visible;"/>
					</clipPath>
					<g class="st8">
						<g>
							<g>
								<g>
									<path d="M117.3,210.1l-56.7-32.9l9.9-5.7c4.2-2.4,9.8-3.2,16.5-2.3c6.5,0.9,12.9,3.2,19.1,6.7l0.1,0.1l13.2,7.6
										c6.3,3.7,10.3,7.4,11.8,11.2c1.6,3.9,0.2,7.1-4,9.5L117.3,210.1 M120,168.2l-0.1-0.1c-9.4-5.4-19.7-8.4-30.9-8.8
										c-11.1-0.5-20.8,1.6-28.7,6.2l-23.5,13.6l77.3,44.9l23.5-13.6c7.9-4.6,11.6-10.2,10.9-16.6c-0.7-6.5-5.9-12.5-15.3-18
										L120,168.2"/>
									<path class="st2" d="M117.3,208.2l-53.4-31l8.2-4.7c3.7-2.1,8.3-2.7,14.3-1.9s12.1,3,17.9,6.4l0.1,0.1l13.2,7.6
										c6,3.5,9.8,7,11.2,10.6c1.4,3.5,0.3,6.2-3.4,8.3L117.3,208.2 M106.2,176l-0.1-0.1c-6.2-3.6-12.6-5.8-19.1-6.7
										c-6.7-0.9-12.3-0.2-16.5,2.3l-9.9,5.7l56.7,32.9l9.9-5.7c4.2-2.4,5.6-5.7,4-9.5c-1.5-3.8-5.5-7.5-11.8-11.2L106.2,176
										 M114,223.9L36.7,179l23.5-13.6c7.9-4.6,17.6-6.7,28.7-6.2s21.5,3.4,30.9,8.8l0.1,0.1l13.1,7.6c9.4,5.5,14.6,11.5,15.3,18
										c0.7,6.4-2.9,12-10.9,16.6L114,223.9 M121.6,167.2l-0.2-0.1c-9.8-5.6-20.7-8.7-32.4-9.2c-11.8-0.5-22.1,1.8-30.6,6.6
										L33.2,179l80.6,46.8l25.2-14.5c8.4-4.9,12.3-10.8,11.6-17.7c-0.8-6.8-6.1-13.2-16-18.9L121.6,167.2"/>
									<path d="M153.6,111.5l-13.6,7.9l50.7,29.5c5.6,3.2,8.7,6.4,9.4,9.5c0.6,3.1-1.2,5.9-5.3,8.4c-4.1,2.4-8.9,3.4-14.4,3
										c-5.3-0.4-10.8-2.2-16.3-5.4l-0.1-0.1l-50.7-29.4l-13.6,7.8l50.7,29.4l0.1,0.1c8.6,5,17.9,7.5,27.7,7.4
										c9.8,0,18.8-2.4,26.8-7s12.1-9.8,12.2-15.5c0.1-5.7-4.2-11.1-12.9-16.1L153.6,111.5"/>
									<path class="st2" d="M164,164.3l0.1,0.1c5.5,3.2,11,5,16.3,5.4c5.4,0.4,10.3-0.6,14.4-3c4.2-2.4,6-5.2,5.3-8.4
										c-0.6-3.1-3.8-6.3-9.4-9.5L140,119.4l13.6-7.9l50.7,29.5c8.7,5,13,10.5,12.9,16.1c-0.1,5.7-4.2,10.9-12.2,15.5
										s-17,7-26.8,7c-9.7,0-19-2.5-27.7-7.4l-0.1-0.1l-50.7-29.4l13.6-7.8L164,164.3 M153.6,109.6l-16.9,9.8l52.4,30.4
										c5.2,3,8.1,5.9,8.7,8.7c0.6,2.7-1,5.1-4.7,7.2c-3.6,2.1-7.7,3-12.4,2.6c-4.7-0.3-9.8-2-14.9-5l-0.1-0.1l-52.4-30.4
										l-16.9,9.8l52.4,30.4l0.1,0.1c9.1,5.2,19,7.9,29.3,7.8c10.4,0,20-2.5,28.4-7.4s12.8-10.4,12.9-16.5
										c0.1-6-4.5-11.8-13.6-17.1L153.6,109.6"/>
								</g>
							</g>
						</g>
					</g>
				</g>
			</g>
		</g>
		<g id="couche5U">
			<g class="st0">
				<g>
					<defs>
						<polygon id="SVGID_15_" points="33.1,175.3 153.3,105.5 235.5,152.9 115.4,222.8 						"/>
					</defs>
					<clipPath id="SVGID_16_">
						<use xlink:href="#SVGID_15_"  style="overflow:visible;"/>
					</clipPath>
					<g class="st9">
						<g>
							<g>
								<g>
									<path d="M117.3,206.2l-56.7-32.9l9.9-5.7c4.2-2.4,9.8-3.2,16.5-2.3c6.5,0.9,12.9,3.2,19.1,6.7l0.1,0.1l13.2,7.6
										c6.3,3.7,10.3,7.4,11.8,11.2c1.6,3.9,0.2,7.1-4,9.5L117.3,206.2 M120,164.3l-0.1-0.1c-9.4-5.4-19.7-8.4-30.9-8.8
										c-11.1-0.5-20.8,1.6-28.7,6.2l-23.5,13.6L114,220l23.5-13.6c7.9-4.6,11.6-10.2,10.9-16.6c-0.7-6.5-5.9-12.5-15.3-18
										L120,164.3"/>
									<path class="st2" d="M117.3,204.3l-53.4-31l8.2-4.7c3.7-2.1,8.3-2.7,14.3-1.9s12.1,3,17.9,6.4l0.1,0.1l13.2,7.6
										c6,3.5,9.8,7,11.2,10.6c1.4,3.5,0.3,6.2-3.4,8.3L117.3,204.3 M106.2,172.1l-0.1-0.1c-6.2-3.6-12.6-5.8-19.1-6.7
										c-6.7-0.9-12.3-0.2-16.5,2.3l-9.9,5.7l56.7,32.9l9.9-5.7c4.2-2.4,5.6-5.7,4-9.5c-1.5-3.8-5.5-7.5-11.8-11.2L106.2,172.1
										 M114,220l-77.3-44.9l23.5-13.6c7.9-4.6,17.6-6.7,28.7-6.2s21.5,3.4,30.9,8.8l0.1,0.1l13.1,7.6c9.4,5.5,14.6,11.5,15.3,18
										c0.7,6.4-2.9,12-10.9,16.6L114,220 M121.6,163.3l-0.2-0.1c-9.8-5.6-20.7-8.7-32.4-9.2c-11.8-0.5-22.1,1.8-30.6,6.6
										l-25.2,14.5l80.6,46.8l25.2-14.5c8.4-4.9,12.3-10.8,11.6-17.7c-0.8-6.8-6.1-13.2-16-18.9L121.6,163.3"/>
									<path d="M153.6,107.6l-13.6,7.9l50.7,29.5c5.6,3.2,8.7,6.4,9.4,9.5c0.6,3.1-1.2,5.9-5.3,8.4c-4.1,2.4-8.9,3.4-14.4,3
										c-5.3-0.4-10.8-2.2-16.3-5.4l-0.1-0.1L113.3,131l-13.6,7.8l50.7,29.4l0.1,0.1c8.6,5,17.9,7.5,27.7,7.4
										c9.8,0,18.8-2.4,26.8-7s12.1-9.8,12.2-15.5c0.1-5.7-4.2-11.1-12.9-16.1L153.6,107.6"/>
									<path class="st2" d="M164,160.4l0.1,0.1c5.5,3.2,11,5,16.3,5.4c5.4,0.4,10.3-0.6,14.4-3c4.2-2.4,6-5.2,5.3-8.4
										c-0.6-3.1-3.8-6.3-9.4-9.5L140,115.5l13.6-7.9l50.7,29.5c8.7,5,13,10.5,12.9,16.1c-0.1,5.7-4.2,10.9-12.2,15.5
										s-17,7-26.8,7c-9.7,0-19-2.5-27.7-7.4l-0.1-0.1l-50.7-29.4l13.6-7.8L164,160.4 M153.6,105.7l-16.9,9.8l52.4,30.4
										c5.2,3,8.1,5.9,8.7,8.7c0.6,2.7-1,5.1-4.7,7.2c-3.6,2.1-7.7,3-12.4,2.6c-4.7-0.3-9.8-2-14.9-5l-0.1-0.1L113.3,129
										l-16.9,9.8l52.4,30.4l0.1,0.1c9.1,5.2,19,7.9,29.3,7.8c10.4,0,20-2.5,28.4-7.4s12.8-10.4,12.9-16.5
										c0.1-6-4.5-11.8-13.6-17.1L153.6,105.7"/>
								</g>
							</g>
						</g>
					</g>
				</g>
			</g>
		</g>
		<g id="couche4U">
			<g class="st0">
				<g>
					<defs>
						<polygon id="SVGID_17_" points="33.1,171.4 153.3,101.5 235.5,149 115.4,218.8 						"/>
					</defs>
					<clipPath id="SVGID_18_">
						<use xlink:href="#SVGID_17_"  style="overflow:visible;"/>
					</clipPath>
					<g class="st10">
						<g>
							<g>
								<g>
									<path d="M117.3,202.3l-56.7-32.9l9.9-5.7c4.2-2.4,9.8-3.2,16.5-2.3c6.5,0.9,12.9,3.2,19.1,6.7l0.1,0.1l13.2,7.6
										c6.3,3.7,10.3,7.4,11.8,11.2c1.6,3.9,0.2,7.1-4,9.5L117.3,202.3 M120,160.3l-0.1-0.1c-9.4-5.4-19.7-8.4-30.9-8.8
										c-11.1-0.5-20.8,1.6-28.7,6.2l-23.5,13.6l77.3,44.9l23.5-13.6c7.9-4.6,11.6-10.2,10.9-16.6c-0.7-6.5-5.9-12.5-15.3-18
										L120,160.3"/>
									<path class="st2" d="M117.3,200.3l-53.4-31l8.2-4.7c3.7-2.1,8.3-2.7,14.3-1.9s12.1,3,17.9,6.4l0.1,0.1l13.2,7.6
										c6,3.5,9.8,7,11.2,10.6c1.4,3.5,0.3,6.2-3.4,8.3L117.3,200.3 M106.2,168.2l-0.1-0.1c-6.2-3.6-12.6-5.8-19.1-6.7
										c-6.7-0.9-12.3-0.2-16.5,2.3l-9.9,5.7l56.7,32.9l9.9-5.7c4.2-2.4,5.6-5.7,4-9.5c-1.5-3.8-5.5-7.5-11.8-11.2L106.2,168.2
										 M114,216.1l-77.3-44.9l23.5-13.6c7.9-4.6,17.6-6.7,28.7-6.2s21.5,3.4,30.9,8.8l0.1,0.1l13.1,7.6
										c9.4,5.5,14.6,11.5,15.3,18c0.7,6.4-2.9,12-10.9,16.6L114,216.1 M121.6,159.4l-0.2-0.1c-9.8-5.6-20.7-8.7-32.4-9.2
										c-11.8-0.5-22.1,1.8-30.6,6.6l-25.2,14.5L114,218l25.2-14.5c8.4-4.9,12.3-10.8,11.6-17.7c-0.8-6.8-6.1-13.2-16-18.9
										L121.6,159.4"/>
									<path d="M153.6,103.7l-13.6,7.9l50.7,29.5c5.6,3.2,8.7,6.4,9.4,9.5c0.6,3.1-1.2,5.9-5.3,8.4c-4.1,2.4-8.9,3.4-14.4,3
										c-5.3-0.4-10.8-2.2-16.3-5.4l-0.1-0.1L113.3,127l-13.6,7.8l50.7,29.4l0.1,0.1c8.6,5,17.9,7.5,27.7,7.4
										c9.8,0,18.8-2.4,26.8-7s12.1-9.8,12.2-15.5c0.1-5.7-4.2-11.1-12.9-16.1L153.6,103.7"/>
									<path class="st2" d="M164,156.4l0.1,0.1c5.5,3.2,11,5,16.3,5.4c5.4,0.4,10.3-0.6,14.4-3c4.2-2.4,6-5.2,5.3-8.4
										c-0.6-3.1-3.8-6.3-9.4-9.5L140,111.5l13.6-7.9l50.7,29.5c8.7,5,13,10.5,12.9,16.1c-0.1,5.7-4.2,10.9-12.2,15.5
										s-17,7-26.8,7c-9.7,0-19-2.5-27.7-7.4l-0.1-0.1l-50.7-29.4l13.6-7.8L164,156.4 M153.6,101.8l-16.9,9.8l52.4,30.4
										c5.2,3,8.1,5.9,8.7,8.7c0.6,2.7-1,5.1-4.7,7.2c-3.6,2.1-7.7,3-12.4,2.6c-4.7-0.3-9.8-2-14.9-5l-0.1-0.1L113.3,125
										l-16.9,9.8l52.4,30.4l0.1,0.1c9.1,5.2,19,7.9,29.3,7.8c10.4,0,20-2.5,28.4-7.4s12.8-10.4,12.9-16.5
										c0.1-6-4.5-11.8-13.6-17.1L153.6,101.8"/>
								</g>
							</g>
						</g>
					</g>
				</g>
			</g>
		</g>
		<g id="couche3U">
			<g class="st0">
				<g>
					<defs>
						<polygon id="SVGID_19_" points="33.1,167.4 153.3,97.6 235.5,145.1 115.4,214.9 						"/>
					</defs>
					<clipPath id="SVGID_20_">
						<use xlink:href="#SVGID_19_"  style="overflow:visible;"/>
					</clipPath>
					<g class="st11">
						<g>
							<g>
								<g>
									<path d="M117.3,198.3l-56.7-32.9l9.9-5.7c4.2-2.4,9.8-3.2,16.5-2.3c6.5,0.9,12.9,3.2,19.1,6.7l0.1,0.1l13.2,7.6
										c6.3,3.7,10.3,7.4,11.8,11.2c1.6,3.9,0.2,7.1-4,9.5L117.3,198.3 M120,156.4l-0.1-0.1c-9.4-5.4-19.7-8.4-30.9-8.8
										c-11.1-0.5-20.8,1.6-28.7,6.2l-23.5,13.6l77.3,44.9l23.5-13.6c7.9-4.6,11.6-10.2,10.9-16.6c-0.7-6.5-5.9-12.5-15.3-18
										L120,156.4"/>
									<path class="st2" d="M117.3,196.4l-53.4-31l8.2-4.7c3.7-2.1,8.3-2.7,14.3-1.9s12.1,3,17.9,6.4l0.1,0.1l13.2,7.6
										c6,3.5,9.8,7,11.2,10.6c1.4,3.5,0.3,6.2-3.4,8.3L117.3,196.4 M106.2,164.2l-0.1-0.1c-6.2-3.6-12.6-5.8-19.1-6.7
										c-6.7-0.9-12.3-0.2-16.5,2.3l-9.9,5.7l56.7,32.9l9.9-5.7c4.2-2.4,5.6-5.7,4-9.5c-1.5-3.8-5.5-7.5-11.8-11.2L106.2,164.2
										 M114,212.2l-77.3-44.9l23.5-13.6c7.9-4.6,17.6-6.7,28.7-6.2s21.5,3.4,30.9,8.8l0.1,0.1L133,164c9.4,5.5,14.6,11.5,15.3,18
										c0.7,6.4-2.9,12-10.9,16.6L114,212.2 M121.6,155.4l-0.2-0.1c-9.8-5.6-20.7-8.7-32.4-9.2c-11.8-0.5-22.1,1.8-30.6,6.6
										l-25.2,14.5l80.6,46.8l25.2-14.5c8.4-4.9,12.3-10.8,11.6-17.7c-0.8-6.8-6.1-13.2-16-18.9L121.6,155.4"/>
									<path d="M153.6,99.8l-13.6,7.9l50.7,29.5c5.6,3.2,8.7,6.4,9.4,9.5c0.6,3.1-1.2,5.9-5.3,8.4c-4.1,2.4-8.9,3.4-14.4,3
										c-5.3-0.4-10.8-2.2-16.3-5.4l-0.1-0.1l-50.7-29.4L99.7,131l50.7,29.4l0.1,0.1c8.6,5,17.9,7.5,27.7,7.4
										c9.8,0,18.8-2.4,26.8-7s12.1-9.8,12.2-15.5c0.1-5.7-4.2-11.1-12.9-16.1L153.6,99.8"/>
									<path class="st2" d="M164,152.5l0.1,0.1c5.5,3.2,11,5,16.3,5.4c5.4,0.4,10.3-0.6,14.4-3c4.2-2.4,6-5.2,5.3-8.4
										c-0.6-3.1-3.8-6.3-9.4-9.5L140,107.6l13.6-7.9l50.7,29.5c8.7,5,13,10.5,12.9,16.1c-0.1,5.7-4.2,10.9-12.2,15.5
										s-17,7-26.8,7c-9.7,0-19-2.5-27.7-7.4l-0.1-0.1l-50.7-29.4l13.6-7.8L164,152.5 M153.6,97.8l-16.9,9.8l52.4,30.4
										c5.2,3,8.1,5.9,8.7,8.7c0.6,2.7-1,5.1-4.7,7.2c-3.6,2.1-7.7,3-12.4,2.6c-4.7-0.3-9.8-2-14.9-5l-0.1-0.1L113.3,121
										l-16.9,9.8l52.4,30.4l0.1,0.1c9.1,5.2,19,7.9,29.3,7.8c10.4,0,20-2.5,28.4-7.4s12.8-10.4,12.9-16.5
										c0.1-6-4.5-11.8-13.6-17.1L153.6,97.8"/>
								</g>
							</g>
						</g>
					</g>
				</g>
			</g>
		</g>
		<g id="couche2U">
			<g class="st0">
				<g>
					<defs>
						<polygon id="SVGID_21_" points="33.1,163.5 153.3,93.7 235.5,141.2 115.4,211 						"/>
					</defs>
					<clipPath id="SVGID_22_">
						<use xlink:href="#SVGID_21_"  style="overflow:visible;"/>
					</clipPath>
					<g class="st12">
						<g>
							<g>
								<g>
									<path d="M117.3,194.4l-56.7-32.9l9.9-5.7c4.2-2.4,9.8-3.2,16.5-2.3c6.5,0.9,12.9,3.2,19.1,6.7l0.1,0.1l13.2,7.6
										c6.3,3.7,10.3,7.4,11.8,11.2c1.6,3.9,0.2,7.1-4,9.5L117.3,194.4 M120,152.5l-0.1-0.1c-9.4-5.4-19.7-8.4-30.9-8.8
										c-11.1-0.5-20.8,1.6-28.7,6.2l-23.5,13.6l77.3,44.9l23.5-13.6c7.9-4.6,11.6-10.2,10.9-16.6c-0.7-6.5-5.9-12.5-15.3-18
										L120,152.5"/>
									<path class="st2" d="M117.3,192.5l-53.4-31l8.2-4.7c3.7-2.1,8.3-2.7,14.3-1.9s12.1,3,17.9,6.4l0.1,0.1l13.2,7.6
										c6,3.5,9.8,7,11.2,10.6c1.4,3.5,0.3,6.2-3.4,8.3L117.3,192.5 M106.2,160.3l-0.1-0.1c-6.2-3.6-12.6-5.8-19.1-6.7
										c-6.7-0.9-12.3-0.2-16.5,2.3l-9.9,5.7l56.7,32.9l9.9-5.7c4.2-2.4,5.6-5.7,4-9.5c-1.5-3.8-5.5-7.5-11.8-11.2L106.2,160.3
										 M114,208.2l-77.3-44.9l23.5-13.6c7.9-4.6,17.6-6.7,28.7-6.2s21.5,3.4,30.9,8.8l0.1,0.1L133,160c9.4,5.5,14.6,11.5,15.3,18
										c0.7,6.4-2.9,12-10.9,16.6L114,208.2 M121.6,151.5l-0.2-0.1c-9.8-5.6-20.7-8.7-32.4-9.2c-11.8-0.5-22.1,1.8-30.6,6.6
										l-25.2,14.5l80.6,46.8l25.2-14.5c8.4-4.9,12.3-10.8,11.6-17.7c-0.8-6.8-6.1-13.2-16-18.9L121.6,151.5"/>
									<path d="M153.6,95.8l-13.6,7.9l50.7,29.5c5.6,3.2,8.7,6.4,9.4,9.5c0.6,3.1-1.2,5.9-5.3,8.4c-4.1,2.4-8.9,3.4-14.4,3
										c-5.3-0.4-10.8-2.2-16.3-5.4l-0.1-0.1l-50.7-29.4L99.7,127l50.7,29.4l0.1,0.1c8.6,5,17.9,7.5,27.7,7.4
										c9.8,0,18.8-2.4,26.8-7s12.1-9.8,12.2-15.5c0.1-5.7-4.2-11.1-12.9-16.1L153.6,95.8"/>
									<path class="st2" d="M164,148.6l0.1,0.1c5.5,3.2,11,5,16.3,5.4c5.4,0.4,10.3-0.6,14.4-3c4.2-2.4,6-5.2,5.3-8.4
										c-0.6-3.1-3.8-6.3-9.4-9.5L140,103.7l13.6-7.9l50.7,29.5c8.7,5,13,10.5,12.9,16.1c-0.1,5.7-4.2,10.9-12.2,15.5
										s-17,7-26.8,7c-9.7,0-19-2.5-27.7-7.4l-0.1-0.1L99.7,127l13.6-7.8L164,148.6 M153.6,93.9l-16.9,9.8l52.4,30.4
										c5.2,3,8.1,5.9,8.7,8.7c0.6,2.7-1,5.1-4.7,7.2c-3.6,2.1-7.7,3-12.4,2.6c-4.7-0.3-9.8-2-14.9-5l-0.1-0.1l-52.4-30.4
										L96.4,127l52.4,30.4l0.1,0.1c9.1,5.2,19,7.9,29.3,7.8c10.4,0,20-2.5,28.4-7.4s12.8-10.4,12.9-16.5
										c0.1-6-4.5-11.8-13.6-17.1L153.6,93.9"/>
								</g>
							</g>
						</g>
					</g>
				</g>
			</g>
		</g>
		<g id="couche1U">
			<g class="st0">
				<g>
					<defs>
						<polygon id="SVGID_23_" points="33.1,159.6 153.3,89.8 235.5,137.3 115.4,207.1 						"/>
					</defs>
					<clipPath id="SVGID_24_">
						<use xlink:href="#SVGID_23_"  style="overflow:visible;"/>
					</clipPath>
					<g class="st13">
						<g>
							<g>
								<g>
									<path d="M117.3,190.5l-56.7-32.9l9.9-5.7c4.2-2.4,9.8-3.2,16.5-2.3c6.5,0.9,12.9,3.2,19.1,6.7l0.1,0.1l13.2,7.6
										c6.3,3.7,10.3,7.4,11.8,11.2c1.6,3.9,0.2,7.1-4,9.5L117.3,190.5 M120,148.6l-0.1-0.1c-9.4-5.4-19.7-8.4-30.9-8.8
										c-11.1-0.5-20.8,1.6-28.7,6.2l-23.5,13.6l77.3,44.9l23.5-13.6c7.9-4.6,11.6-10.2,10.9-16.6c-0.7-6.5-5.9-12.5-15.3-18
										L120,148.6"/>
									<path class="st2" d="M117.3,188.6l-53.4-31l8.2-4.7c3.7-2.1,8.3-2.7,14.3-1.9s12.1,3,17.9,6.4l0.1,0.1l13.2,7.6
										c6,3.5,9.8,7,11.2,10.6c1.4,3.5,0.3,6.2-3.4,8.3L117.3,188.6 M106.2,156.4l-0.1-0.1c-6.2-3.6-12.6-5.8-19.1-6.7
										c-6.7-0.9-12.3-0.2-16.5,2.3l-9.9,5.7l56.7,32.9l9.9-5.7c4.2-2.4,5.6-5.7,4-9.5c-1.5-3.8-5.5-7.5-11.8-11.2L106.2,156.4
										 M114,204.3l-77.3-44.9l23.5-13.6c7.9-4.6,17.6-6.7,28.7-6.2s21.5,3.4,30.9,8.8l0.1,0.1l13.1,7.6
										c9.4,5.5,14.6,11.5,15.3,18c0.7,6.4-2.9,12-10.9,16.6L114,204.3 M121.6,147.6l-0.2-0.1c-9.8-5.6-20.7-8.7-32.4-9.2
										c-11.8-0.5-22.1,1.8-30.6,6.6l-25.2,14.5l80.6,46.8l25.2-14.5c8.4-4.9,12.3-10.8,11.6-17.7c-0.8-6.8-6.1-13.2-16-18.9
										L121.6,147.6"/>
									<path d="M153.6,91.9L140,99.8l50.7,29.5c5.6,3.2,8.7,6.4,9.4,9.5c0.6,3.1-1.2,5.9-5.3,8.4c-4.1,2.4-8.9,3.4-14.4,3
										c-5.3-0.4-10.8-2.2-16.3-5.4l-0.1-0.1l-50.7-29.4l-13.6,7.8l50.7,29.4l0.1,0.1c8.6,5,17.9,7.5,27.7,7.4
										c9.8,0,18.8-2.4,26.8-7s12.1-9.8,12.2-15.5c0.1-5.7-4.2-11.1-12.9-16.1L153.6,91.9"/>
									<path class="st2" d="M164,144.7l0.1,0.1c5.5,3.2,11,5,16.3,5.4c5.4,0.4,10.3-0.6,14.4-3c4.2-2.4,6-5.2,5.3-8.4
										c-0.6-3.1-3.8-6.3-9.4-9.5L140,99.8l13.6-7.9l50.7,29.5c8.7,5,13,10.5,12.9,16.1c-0.1,5.7-4.2,10.9-12.2,15.5s-17,7-26.8,7
										c-9.7,0-19-2.5-27.7-7.4l-0.1-0.1l-50.7-29.4l13.6-7.8L164,144.7 M153.6,90l-16.9,9.8l52.4,30.4c5.2,3,8.1,5.9,8.7,8.7
										c0.6,2.7-1,5.1-4.7,7.2c-3.6,2.1-7.7,3-12.4,2.6c-4.7-0.3-9.8-2-14.9-5l-0.1-0.1l-52.4-30.4L96.4,123l52.4,30.4l0.1,0.1
										c9.1,5.2,19,7.9,29.3,7.8c10.4,0,20-2.5,28.4-7.4s12.8-10.4,12.9-16.5c0.1-6-4.5-11.8-13.6-17.1L153.6,90"/>
								</g>
							</g>
						</g>
					</g>
				</g>
			</g>
		</g>
	</g>
</g>
<rect x="82.8" y="29.3" class="st14" width="10.8" height="3.7"/>
</svg>
